<svg width="23" height="22" viewBox="0 0 23 22" fill="none" xmlns="http://www.w3.org/2000/svg">
<path fill-rule="evenodd" clip-rule="evenodd" d="M19.5161 0C21.173 0 22.5161 1.34315 22.5161 3V19C22.5161 20.6569 21.173 22 19.5161 22H3.51611C1.85926 22 0.516113 20.6569 0.516113 19V3C0.516113 1.34315 1.85926 0 3.51611 0H19.5161ZM19.5161 2C20.0684 2 20.5161 2.44772 20.5161 3V19C20.5161 19.5523 20.0684 20 19.5161 20H14.5161V12.9999H16.5923C17.0227 12.9999 17.4049 12.7245 17.541 12.3161L17.984 10.9871C18.1459 10.5014 17.7844 9.99992 17.2725 9.99992H14.5161V7.99992C14.5161 7.49992 15.0161 6.99992 15.5161 6.99992H17.5161C18.0684 6.99992 18.5161 6.5522 18.5161 5.99992V5.31393C18.5161 4.99091 18.3098 4.7013 17.9974 4.61887C16.6866 4.27295 15.5161 4.27295 15.5161 4.27295C13.0161 4.27295 11.5161 5.99992 11.5161 7.49992V9.99992H9.51611C8.96383 9.99992 8.51611 10.4476 8.51611 10.9999V11.9999C8.51611 12.5522 8.96383 12.9999 9.51611 12.9999H11.5161V20H3.51611C2.96383 20 2.51611 19.5523 2.51611 19V3C2.51611 2.44772 2.96383 2 3.51611 2H19.5161Z" fill="#151618"/>
</svg>
