<svg width="23" height="22" viewBox="0 0 23 22" fill="none" xmlns="http://www.w3.org/2000/svg">
<path fill-rule="evenodd" clip-rule="evenodd" d="M11.5161 17C14.8298 17 17.5161 14.3137 17.5161 11C17.5161 7.68629 14.8298 5 11.5161 5C8.2024 5 5.51611 7.68629 5.51611 11C5.51611 14.3137 8.2024 17 11.5161 17ZM11.5161 15C13.7253 15 15.5161 13.2091 15.5161 11C15.5161 8.79086 13.7253 7 11.5161 7C9.30697 7 7.51611 8.79086 7.51611 11C7.51611 13.2091 9.30697 15 11.5161 15Z" fill="#0F0F0F"/>
<path d="M17.5161 4C16.9638 4 16.5161 4.44772 16.5161 5C16.5161 5.55228 16.9638 6 17.5161 6C18.0684 6 18.5161 5.55228 18.5161 5C18.5161 4.44772 18.0684 4 17.5161 4Z" fill="#0F0F0F"/>
<path fill-rule="evenodd" clip-rule="evenodd" d="M1.17007 3.27606C0.516113 4.55953 0.516113 6.23969 0.516113 9.6V12.4C0.516113 15.7603 0.516113 17.4405 1.17007 18.7239C1.74531 19.8529 2.6632 20.7708 3.79217 21.346C5.07564 22 6.7558 22 10.1161 22H12.9161C16.2764 22 17.9566 22 19.2401 21.346C20.369 20.7708 21.2869 19.8529 21.8622 18.7239C22.5161 17.4405 22.5161 15.7603 22.5161 12.4V9.6C22.5161 6.23969 22.5161 4.55953 21.8622 3.27606C21.2869 2.14708 20.369 1.2292 19.2401 0.653961C17.9566 0 16.2764 0 12.9161 0H10.1161C6.7558 0 5.07564 0 3.79217 0.653961C2.6632 1.2292 1.74531 2.14708 1.17007 3.27606ZM12.9161 2H10.1161C8.40295 2 7.23837 2.00156 6.33819 2.0751C5.46136 2.14674 5.01295 2.27659 4.70015 2.43597C3.9475 2.81947 3.33558 3.43139 2.95209 4.18404C2.79271 4.49684 2.66286 4.94524 2.59122 5.82208C2.51767 6.72225 2.51611 7.88684 2.51611 9.6V12.4C2.51611 14.1132 2.51767 15.2777 2.59122 16.1779C2.66286 17.0548 2.79271 17.5032 2.95209 17.816C3.33558 18.5686 3.9475 19.1805 4.70015 19.564C5.01295 19.7234 5.46136 19.8533 6.33819 19.9249C7.23837 19.9984 8.40295 20 10.1161 20H12.9161C14.6293 20 15.7939 19.9984 16.694 19.9249C17.5709 19.8533 18.0193 19.7234 18.3321 19.564C19.0847 19.1805 19.6966 18.5686 20.0801 17.816C20.2395 17.5032 20.3694 17.0548 20.441 16.1779C20.5146 15.2777 20.5161 14.1132 20.5161 12.4V9.6C20.5161 7.88684 20.5146 6.72225 20.441 5.82208C20.3694 4.94524 20.2395 4.49684 20.0801 4.18404C19.6966 3.43139 19.0847 2.81947 18.3321 2.43597C18.0193 2.27659 17.5709 2.14674 16.694 2.0751C15.7939 2.00156 14.6293 2 12.9161 2Z" fill="#0F0F0F"/>
</svg>
