<svg width="23" height="16" viewBox="0 0 23 16" fill="none" xmlns="http://www.w3.org/2000/svg">
<path fill-rule="evenodd" clip-rule="evenodd" d="M19.25 0C20.9069 0 22.25 1.34315 22.25 3V13C22.25 14.6569 20.9069 16 19.25 16H3.25C1.59315 16 0.25 14.6569 0.25 13V3C0.25 1.34315 1.59315 0 3.25 0H19.25ZM18.5029 2H3.99718L10.6304 7.23673C10.9937 7.52356 11.5063 7.52356 11.8697 7.23673L18.5029 2ZM2.25 3.1688V13C2.25 13.5523 2.69772 14 3.25 14H19.25C19.8023 14 20.25 13.5523 20.25 13V3.16882L13.1089 8.8065C12.019 9.66697 10.481 9.66697 9.39108 8.8065L2.25 3.1688Z" fill="#151618"/>
</svg>
