<svg width="27" height="20" viewBox="0 0 27 20" fill="none" xmlns="http://www.w3.org/2000/svg">
<g clip-path="url(#clip0_2_950)">
<path d="M5.45474 19.9007V18.577C5.45474 18.0695 5.14253 17.7386 4.6074 17.7386C4.33989 17.7386 4.05003 17.8268 3.84934 18.1137C3.69334 17.871 3.47041 17.7386 3.13596 17.7386C2.91293 17.7386 2.69011 17.8047 2.51166 18.0475V17.7827H2.04346V19.9007H2.51166V18.7314C2.51166 18.3564 2.71235 18.1798 3.02455 18.1798C3.33655 18.1798 3.49275 18.3784 3.49275 18.7314V19.9007H3.96096V18.7314C3.96096 18.3564 4.18379 18.1798 4.47364 18.1798C4.78585 18.1798 4.94185 18.3784 4.94185 18.7314V19.9007H5.45474ZM12.3885 17.7827H11.6305V17.1429H11.1623V17.7827H10.7387V18.2018H11.1622V19.1727C11.1622 19.6581 11.3629 19.9448 11.8981 19.9448C12.0988 19.9448 12.3216 19.8787 12.4778 19.7905L12.3439 19.3933C12.2102 19.4815 12.0542 19.5036 11.9427 19.5036C11.7197 19.5036 11.6305 19.3713 11.6305 19.1506V18.2018H12.3885V17.7827ZM16.3572 17.7385C16.0897 17.7385 15.9113 17.871 15.7998 18.0475V17.7827H15.3316V19.9007H15.7998V18.7094C15.7998 18.3564 15.9558 18.1578 16.2457 18.1578C16.3348 18.1578 16.4463 18.1799 16.5355 18.2019L16.6693 17.7607C16.5801 17.7386 16.4463 17.7386 16.3572 17.7386V17.7385ZM10.3597 17.9592C10.1367 17.8047 9.82457 17.7386 9.49012 17.7386C8.95509 17.7386 8.5984 18.0033 8.5984 18.4225C8.5984 18.7756 8.86592 18.9741 9.33412 19.0403L9.55705 19.0624C9.80232 19.1064 9.93608 19.1727 9.93608 19.283C9.93608 19.4374 9.75774 19.5478 9.44554 19.5478C9.13343 19.5478 8.88816 19.4374 8.73206 19.3272L8.50913 19.6801C8.7544 19.8566 9.08885 19.9448 9.42319 19.9448C10.0475 19.9448 10.4043 19.6581 10.4043 19.2609C10.4043 18.8858 10.1144 18.6873 9.66846 18.6211L9.44554 18.599C9.24485 18.5769 9.08885 18.5329 9.08885 18.4005C9.08885 18.246 9.24485 18.1578 9.49012 18.1578C9.75774 18.1578 10.0253 18.2681 10.159 18.3343L10.3597 17.9592ZM22.8006 17.7386C22.533 17.7386 22.3546 17.871 22.2431 18.0475V17.7827H21.7749V19.9007H22.2431V18.7094C22.2431 18.3564 22.3992 18.1578 22.689 18.1578C22.7783 18.1578 22.8898 18.1799 22.9789 18.2019L23.1127 17.7607C23.0235 17.7386 22.8898 17.7386 22.8006 17.7386ZM16.8254 18.8417C16.8254 19.4815 17.2712 19.9448 17.9625 19.9448C18.2746 19.9448 18.4975 19.8787 18.7204 19.7022L18.4975 19.3272C18.3192 19.4595 18.1408 19.5256 17.9401 19.5256C17.5611 19.5256 17.2936 19.2609 17.2936 18.8417C17.2936 18.4446 17.5611 18.1798 17.9401 18.1578C18.1408 18.1578 18.3192 18.2239 18.4975 18.3564L18.7204 17.9813C18.4975 17.8047 18.2746 17.7386 17.9625 17.7386C17.2712 17.7386 16.8254 18.2019 16.8254 18.8417ZM21.1507 18.8417V17.7827H20.6825V18.0475C20.5264 17.849 20.3035 17.7386 20.0136 17.7386C19.4117 17.7386 18.9435 18.2019 18.9435 18.8417C18.9435 19.4815 19.4117 19.9448 20.0136 19.9448C20.3257 19.9448 20.5488 19.8346 20.6825 19.636V19.9007H21.1507V18.8417ZM19.4339 18.8417C19.4339 18.4666 19.6792 18.1578 20.0804 18.1578C20.4595 18.1578 20.7271 18.4446 20.7271 18.8417C20.7271 19.2168 20.4595 19.5256 20.0804 19.5256C19.6792 19.5035 19.4339 19.2168 19.4339 18.8417ZM13.8378 17.7386C13.2135 17.7386 12.7675 18.1798 12.7675 18.8417C12.7675 19.5036 13.2134 19.9448 13.8601 19.9448C14.1722 19.9448 14.4844 19.8566 14.7296 19.6581L14.5066 19.3272C14.3283 19.4595 14.1053 19.5478 13.8824 19.5478C13.5925 19.5478 13.3027 19.4154 13.2357 19.0402H14.8188V18.8638C14.8411 18.1798 14.4399 17.7386 13.8378 17.7386ZM13.8378 18.1357C14.1276 18.1357 14.3284 18.3123 14.3728 18.6432H13.2581C13.3027 18.3564 13.5034 18.1357 13.8378 18.1357ZM25.4537 18.8417V16.9443H24.9855V18.0475C24.8294 17.849 24.6065 17.7386 24.3166 17.7386C23.7147 17.7386 23.2465 18.2019 23.2465 18.8417C23.2465 19.4815 23.7147 19.9448 24.3166 19.9448C24.6288 19.9448 24.8518 19.8346 24.9855 19.636V19.9007H25.4537V18.8417ZM23.737 18.8417C23.737 18.4666 23.9822 18.1578 24.3835 18.1578C24.7626 18.1578 25.0301 18.4446 25.0301 18.8417C25.0301 19.2168 24.7626 19.5256 24.3835 19.5256C23.9822 19.5035 23.737 19.2168 23.737 18.8417ZM8.08551 18.8417V17.7827H7.61731V18.0475C7.46121 17.849 7.23828 17.7386 6.94842 17.7386C6.34646 17.7386 5.87825 18.2019 5.87825 18.8417C5.87825 19.4815 6.34646 19.9448 6.94842 19.9448C7.26062 19.9448 7.48355 19.8346 7.61731 19.636V19.9007H8.08551V18.8417ZM6.34646 18.8417C6.34646 18.4666 6.59173 18.1578 6.993 18.1578C7.37204 18.1578 7.63965 18.4446 7.63965 18.8417C7.63965 19.2168 7.37204 19.5256 6.993 19.5256C6.59173 19.5035 6.34646 19.2168 6.34646 18.8417Z" fill="#151618"/>
<path d="M10.2036 1.69873H17.2267V14.1863H10.2036V1.69873Z" fill="#FF5F00"/>
<path d="M10.6496 7.94261C10.6496 5.40543 11.8535 3.15497 13.704 1.69879C12.344 0.639799 10.6273 0 8.75451 0C4.31755 0 0.728027 3.55206 0.728027 7.94261C0.728027 12.3331 4.31755 15.8852 8.75441 15.8852C10.6272 15.8852 12.3439 15.2454 13.704 14.1863C11.8535 12.7523 10.6496 10.4798 10.6496 7.94261Z" fill="#EB001B"/>
<path d="M26.7022 7.94261C26.7022 12.3331 23.1127 15.8852 18.6759 15.8852C16.8031 15.8852 15.0863 15.2454 13.7263 14.1863C15.5991 12.7303 16.7808 10.4798 16.7808 7.94261C16.7808 5.40543 15.5768 3.15497 13.7263 1.69879C15.0862 0.639799 16.8031 0 18.6759 0C23.1127 0 26.7022 3.57417 26.7022 7.94261Z" fill="#F79E1B"/>
</g>
<defs>
<clipPath id="clip0_2_950">
<rect width="26" height="20" fill="white" transform="translate(0.728027)"/>
</clipPath>
</defs>
</svg>
