<svg width="11" height="12" viewBox="0 0 11 12" fill="none" xmlns="http://www.w3.org/2000/svg">
<g clip-path="url(#clip0_2_962)">
<path d="M9.21101 0.933856C8.66671 0.302783 7.68281 0.0322266 6.42409 0.0322266H2.77097C2.64643 0.0322313 2.52598 0.0774268 2.43127 0.159688C2.33656 0.241948 2.27381 0.355879 2.25429 0.480995L0.733195 10.2943C0.702961 10.4878 0.850266 10.663 1.04308 10.663H3.29839L3.8648 7.00852L3.84722 7.12296C3.88757 6.86464 4.10476 6.67411 4.36195 6.67411H5.43366C7.53905 6.67411 9.18761 5.80423 9.66917 3.28784C9.68347 3.21342 9.69585 3.14098 9.70656 3.07021C9.64577 3.03747 9.64577 3.03747 9.70656 3.07021C9.84995 2.14013 9.70558 1.50703 9.21101 0.933856Z" fill="#27346A"/>
<path d="M4.72777 2.73517C4.78942 2.7053 4.85686 2.68983 4.92515 2.68987H7.78913C8.12827 2.68987 8.4446 2.71232 8.73366 2.75964C8.81455 2.77276 8.89502 2.78843 8.97495 2.80661C9.08825 2.83204 9.20023 2.86317 9.3105 2.89987C9.45261 2.94815 9.58495 3.00437 9.70659 3.07021C9.84995 2.13978 9.70558 1.50703 9.21101 0.933856C8.6664 0.302783 7.68281 0.0322266 6.42409 0.0322266H2.77066C2.51343 0.0322266 2.2946 0.222717 2.25429 0.480995L0.733196 10.2939C0.702961 10.4877 0.850266 10.6627 1.04277 10.6627H3.29839L4.47351 3.08245C4.48506 3.00794 4.51424 2.93741 4.55853 2.87691C4.60282 2.81642 4.6609 2.76777 4.72777 2.73517Z" fill="#27346A"/>
<path d="M9.66939 3.28794C9.18783 5.80397 7.53932 6.67421 5.43389 6.67421H4.36185C4.10467 6.67421 3.88744 6.86474 3.84748 7.12305L3.14283 11.667C3.1165 11.8363 3.24525 11.9898 3.41369 11.9898H5.31486C5.42377 11.9897 5.52909 11.9502 5.61189 11.8782C5.69468 11.8063 5.74952 11.7066 5.76654 11.5972L5.78506 11.4986L6.14338 9.1886L6.16646 9.06093C6.18348 8.95152 6.23832 8.85187 6.3211 8.77991C6.40389 8.70795 6.50921 8.66839 6.6181 8.66835H6.90264C8.74431 8.66835 10.1864 7.90727 10.6078 5.7061C10.7837 4.78623 10.6927 4.01823 10.2274 3.47879C10.0862 3.3154 9.91096 3.18046 9.70678 3.07031C9.69572 3.14144 9.68373 3.21352 9.66939 3.28794Z" fill="#2790C3"/>
<path d="M9.20269 2.86593C9.12761 2.84363 9.05181 2.82388 8.97543 2.80672C8.89545 2.78884 8.81499 2.77328 8.73414 2.76008C8.44477 2.71243 8.12867 2.68994 7.78922 2.68994H4.92559C4.85724 2.68978 4.78976 2.7054 4.7282 2.7356C4.66126 2.7681 4.60312 2.81672 4.55881 2.87723C4.5145 2.93774 4.48536 3.00833 4.47391 3.08288L3.86523 7.00863L3.84766 7.12307C3.8877 6.86475 4.10488 6.67422 4.36211 6.67422H5.43414C7.53953 6.67422 9.18805 5.80434 9.66961 3.28796C9.68395 3.21353 9.69598 3.14141 9.70703 3.07033C9.58508 3.00484 9.45309 2.94826 9.31094 2.9003C9.27507 2.8882 9.239 2.87675 9.20273 2.86593" fill="#1F264F"/>
</g>
<defs>
<clipPath id="clip0_2_962">
<rect width="10" height="12" fill="white" transform="translate(0.728027)"/>
</clipPath>
</defs>
</svg>
