<svg width="30" height="12" viewBox="0 0 30 12" fill="none" xmlns="http://www.w3.org/2000/svg">
<g clip-path="url(#clip0_2_956)">
<path d="M21.2845 3.23843C22.0817 3.23843 22.6978 3.46426 23.1689 3.9159C23.64 4.36749 23.8574 4.96967 23.8574 5.72237V9.33532H22.8427V8.50743H22.8064C22.3716 9.1849 21.7555 9.52361 21.0308 9.52361C20.4147 9.52361 19.8711 9.33537 19.4363 8.95908C19.0376 8.58273 18.7839 8.05585 18.7839 7.49132C18.7839 6.88914 19.0014 6.39985 19.4363 6.02349C19.8711 5.64714 20.4872 5.49661 21.212 5.49661C21.8642 5.49661 22.3716 5.60955 22.7702 5.87296V5.60955C22.7702 5.25826 22.6439 4.90702 22.3914 4.67814L22.3353 4.63102C22.0454 4.36755 21.683 4.21702 21.2845 4.21702C20.6684 4.21702 20.1973 4.48049 19.8711 5.00737L18.9289 4.40508C19.5087 3.61473 20.2697 3.23843 21.2845 3.23843ZM16.1748 0.679258C16.825 0.679258 17.443 0.914258 17.9371 1.35249L18.023 1.43191C18.5303 1.88355 18.7839 2.56102 18.7839 3.27608C18.7839 3.99114 18.5303 4.63096 18.023 5.1202C17.5156 5.60949 16.8996 5.8729 16.1748 5.8729L14.4354 5.83526V9.33537H13.3481V0.679199L16.1748 0.679258ZM21.4293 6.39985C20.9945 6.39985 20.6321 6.51273 20.3422 6.73855C20.0523 6.92673 19.9074 7.19014 19.9074 7.52885C19.9074 7.82996 20.0524 8.09337 20.2697 8.24396C20.5234 8.43214 20.8133 8.54502 21.1033 8.54502C21.5091 8.54502 21.915 8.38108 22.2325 8.08385L22.2991 8.01814C22.6615 7.67943 22.8427 7.26543 22.8427 6.81379C22.5166 6.55037 22.0454 6.39979 21.4294 6.39979L21.4293 6.39985ZM16.2473 1.73302H14.4354V4.7439H16.2473C16.6459 4.7439 17.0445 4.59338 17.2982 4.29232C17.878 3.72779 17.878 2.7869 17.3345 2.22232L17.2982 2.18467C17.0083 1.88361 16.6459 1.69543 16.2472 1.73308L16.2473 1.73302ZM29.728 3.42661L26.1404 11.9698H25.0533L26.3941 8.99667L24.0386 3.46426H25.1982L26.9014 7.71702H26.9376L28.6046 3.46426H29.728V3.42661Z" fill="#5F6368"/>
<path d="M10.123 5.08252C10.123 4.74382 10.0867 4.40511 10.0505 4.06641H5.52075V5.98582H8.09365C7.98496 6.58794 7.65882 7.15246 7.15149 7.49123V8.73317H8.70973C9.6157 7.86758 10.123 6.58794 10.123 5.08258L10.123 5.08252Z" fill="#4285F4"/>
<path d="M5.52053 9.93764C6.82507 9.93764 7.91223 9.486 8.70951 8.73329L7.15127 7.49135C6.71638 7.79241 6.1728 7.98059 5.52053 7.98059C4.28837 7.98059 3.20121 7.115 2.83882 5.91064H1.24438V7.19023C2.07785 8.88382 3.70859 9.93764 5.52053 9.93764Z" fill="#34A853"/>
<path d="M2.8389 5.91091C2.62151 5.30874 2.62151 4.63133 2.8389 3.9915V2.71191H1.24446C0.555882 4.10444 0.555882 5.76039 1.24446 7.1905L2.8389 5.91091Z" fill="#FBBC04"/>
<path d="M5.52071 1.95908C6.20923 1.95908 6.86151 2.22255 7.36889 2.71178L8.74594 1.28167C7.87617 0.453667 6.71656 -0.0355682 5.5569 0.00202003C3.74497 0.00202003 2.07804 1.05584 1.28076 2.74943L2.87525 4.02902C3.20139 2.82467 4.28855 1.95908 5.52071 1.95908Z" fill="#EA4335"/>
</g>
<defs>
<clipPath id="clip0_2_956">
<rect width="29" height="12" fill="white" transform="translate(0.728027)"/>
</clipPath>
</defs>
</svg>
