<svg width="32" height="10" viewBox="0 0 32 10" fill="none" xmlns="http://www.w3.org/2000/svg">
<path d="M16.7605 3.19688C16.7428 4.58993 18.0033 5.36725 18.9528 5.82946C19.9283 6.30365 20.256 6.60776 20.2521 7.03186C20.2448 7.68084 19.4739 7.96729 18.7526 7.97842C17.4941 7.9979 16.7623 7.63899 16.1806 7.36754L15.7272 9.48674C16.3109 9.75541 17.3916 9.98972 18.5123 10C21.1431 10 22.8642 8.70276 22.8735 6.69146C22.8838 4.13884 19.339 3.99756 19.3633 2.85661C19.3716 2.51064 19.7021 2.14146 20.4262 2.04759C20.7847 2.00017 21.7741 1.96388 22.8959 2.47992L23.3362 0.429549C22.7329 0.210117 21.9576 0 20.9922 0C18.5161 0 16.7745 1.3149 16.7605 3.19688ZM27.567 0.17661C27.0866 0.17661 26.6818 0.456525 26.5011 0.886074L22.7432 9.8494H25.3721L25.8952 8.40519H29.1076L29.411 9.8494H31.728L29.7061 0.17661H27.567ZM27.9348 2.78959L28.6934 6.42183H26.6157L27.9348 2.78959ZM13.5732 0.176731L11.501 9.84928H14.0061L16.0773 0.176489L13.5732 0.176731ZM9.86734 0.176489L7.25995 6.76029L6.20522 1.16236C6.08146 0.537451 5.59273 0.17661 5.04998 0.17661H0.787727L0.728027 0.457492C1.60305 0.647166 2.59723 0.953089 3.19955 1.28042C3.56816 1.48038 3.67327 1.65518 3.79436 2.13033L5.79205 9.8494H8.43928L12.4979 0.17661L9.86734 0.176489Z" fill="url(#paint0_linear_2_955)"/>
<defs>
<linearGradient id="paint0_linear_2_955" x1="1425.92" y1="30.06" x2="1454.84" y2="-996.956" gradientUnits="userSpaceOnUse">
<stop stop-color="#222357"/>
<stop offset="1" stop-color="#254AA5"/>
</linearGradient>
</defs>
</svg>
