<svg width="22" height="21" viewBox="0 0 22 21" fill="none" xmlns="http://www.w3.org/2000/svg">
<path fill-rule="evenodd" clip-rule="evenodd" d="M16.0149 20.7244C13.9948 20.2183 9.85927 18.7915 6.11016 15.0423C2.36105 11.2932 0.934203 7.15771 0.428075 5.13763C0.13721 3.97671 0.660977 2.85647 1.54909 2.2221L3.87734 0.559061C5.23962 -0.413994 7.13472 -0.0838051 8.08764 1.29263L9.55343 3.40989C10.1756 4.30863 9.96102 5.54043 9.07152 6.17578L7.90274 7.01062C8.07963 7.68723 8.62979 9.07669 10.3528 10.7997C12.0758 12.5227 13.4653 13.0729 14.1419 13.2498L14.9767 12.081C15.6121 11.1915 16.8439 10.9769 17.7426 11.5991L19.8599 13.0649C21.2363 14.0178 21.5665 15.9129 20.5934 17.2752L18.9304 19.6034C18.296 20.4915 17.1758 21.0153 16.0149 20.7244ZM7.52437 13.6281C10.9338 17.0375 14.6962 18.3322 16.5009 18.7844C16.7647 18.8505 17.0836 18.748 17.3029 18.4409L18.966 16.1127C19.2903 15.6586 19.1803 15.0269 18.7214 14.7092L16.6042 13.2435L15.7083 14.4977C15.3422 15.0103 14.6651 15.4123 13.8767 15.2422C12.8927 15.0299 11.0737 14.349 8.93859 12.2139C6.8035 10.0788 6.12259 8.25983 5.91027 7.27582C5.74017 6.48743 6.14221 5.81033 6.65479 5.44421L7.90905 4.54831L6.44325 2.43105C6.12561 1.97224 5.49391 1.86218 5.03982 2.18653L2.71157 3.84956C2.40453 4.06888 2.30202 4.38778 2.36811 4.65155C2.82029 6.45631 4.11499 10.2187 7.52437 13.6281Z" fill="#151618"/>
</svg>
