<svg width="23" height="18" viewBox="0 0 23 18" fill="none" xmlns="http://www.w3.org/2000/svg">
<path fill-rule="evenodd" clip-rule="evenodd" d="M19.299 1.20311C19.6475 1.12346 19.8905 1.04515 20.0896 0.962892C20.3686 0.847613 20.5999 0.709522 20.9654 0.476949C21.2725 0.281493 21.6661 0.264472 21.9901 0.432634C22.3141 0.600796 22.5162 0.926971 22.5162 1.28181C22.5162 2.32421 22.3815 3.17855 22.0697 3.93043C21.8073 4.56286 21.4387 5.07653 20.9978 5.54405C20.8116 8.78728 19.8381 11.3342 18.3498 13.2638C16.8072 15.2638 14.7548 16.5445 12.5913 17.2617C10.4341 17.9768 8.15482 18.1366 6.11289 17.8945C4.08435 17.654 2.20923 17.0063 0.902241 16.026C0.544318 15.7575 0.418503 15.2904 0.5957 14.8879C0.772898 14.4854 1.20875 14.2483 1.65763 14.3101C2.9436 14.4873 4.18149 14.2054 5.19939 13.8022C4.99901 13.6971 4.81008 13.5833 4.63447 13.4661C3.70694 12.8468 2.95859 12.0063 2.62175 11.3566C2.48237 11.0878 2.48093 10.7716 2.61787 10.5016C2.68851 10.3624 2.79181 10.2436 2.91723 10.1531C1.56296 9.07526 1.01618 7.58447 1.01618 6.58572C1.01618 6.28876 1.15806 6.00836 1.40078 5.82561C1.50284 5.74877 1.61794 5.6928 1.73927 5.65908C1.63793 5.37292 1.55929 5.0838 1.49935 4.8039C1.23358 3.56292 1.25717 2.16224 1.54604 1.04793C1.64489 0.666613 1.97383 0.381306 2.37748 0.326788C2.78112 0.27227 3.17869 0.45945 3.38237 0.799907C4.45988 2.601 6.44735 3.70191 8.29705 4.35405C9.16669 4.66065 9.97213 4.85603 10.5758 4.97615C10.7061 3.79908 11.0469 2.82837 11.57 2.05739C12.2601 1.04021 13.2226 0.438384 14.2562 0.170035C16.0389 -0.292753 18.017 0.234499 19.299 1.20311ZM10.2646 6.88331C9.57952 6.75064 8.6379 6.52777 7.61031 6.16548C6.25309 5.68697 4.67707 4.94085 3.35691 3.78511C3.38054 3.99779 3.41408 4.20866 3.45802 4.41382C3.67927 5.44696 4.09039 6.02556 4.4634 6.20541C4.91961 6.42539 5.13103 6.94122 4.95406 7.40254C4.71446 8.02712 4.08428 8.0784 3.5117 7.94034C3.97222 8.60618 4.79996 9.27004 6.18058 9.49194C6.65676 9.56847 7.00827 9.96214 7.01605 10.4276C7.02384 10.8931 6.68567 11.2975 6.2123 11.3888L5.34184 11.5567C5.47499 11.6683 5.61919 11.7777 5.77289 11.8803C6.46981 12.3456 7.16955 12.5463 7.77365 12.4006C8.2261 12.2916 8.69666 12.4986 8.90781 12.8996C9.11897 13.3006 9.01464 13.7891 8.65637 14.077C8.01245 14.5939 7.26044 15.0086 6.50676 15.3529C6.15294 15.5145 5.75753 15.674 5.32809 15.8144C5.65837 15.8823 6.00205 15.9381 6.35697 15.9802C8.12755 16.1901 10.0983 16.0486 11.9411 15.4378C13.7776 14.829 15.4751 13.7592 16.7451 12.1127C18.0132 10.4685 18.8982 8.19313 19.0169 5.10357C19.0262 4.86032 19.1306 4.62948 19.3091 4.45736C19.7587 4.02374 20.1303 3.52673 20.3131 2.93513C19.9932 3.0313 19.633 3.11454 19.204 3.19364C18.8785 3.25364 18.5434 3.15429 18.3091 2.92834C17.5446 2.19108 16.0326 1.70624 14.7761 2.03242C14.1848 2.18594 13.6473 2.51827 13.2436 3.1133C12.8315 3.72082 12.5162 4.66724 12.5162 6.10359C12.5162 6.37647 12.3963 6.63658 12.1862 6.81943C11.6882 7.25293 10.8501 6.99669 10.2646 6.88331Z" fill="#0F0F0F"/>
</svg>
