<svg width="25" height="18" viewBox="0 0 25 18" fill="none" xmlns="http://www.w3.org/2000/svg">
<path fill-rule="evenodd" clip-rule="evenodd" d="M10.0123 4.13176C9.70275 3.9549 9.3225 3.95617 9.01419 4.13509C8.70587 4.31401 8.51611 4.64353 8.51611 5V13C8.51611 13.3565 8.70587 13.686 9.01419 13.8649C9.3225 14.0438 9.70275 14.0451 10.0123 13.8682L17.0123 9.86824C17.3238 9.6902 17.5161 9.35886 17.5161 9C17.5161 8.64114 17.3238 8.3098 17.0123 8.13176L10.0123 4.13176ZM14.5005 9L10.5161 11.2768V6.72318L14.5005 9Z" fill="#0F0F0F"/>
<path fill-rule="evenodd" clip-rule="evenodd" d="M0.516113 9C0.516113 5.25027 0.516113 3.3754 1.47103 2.06107C1.77943 1.6366 2.15271 1.26331 2.57719 0.954915C3.89152 0 5.76638 0 9.51611 0H15.5161C19.2658 0 21.1407 0 22.455 0.954915C22.8795 1.26331 23.2528 1.6366 23.5612 2.06107C24.5161 3.3754 24.5161 5.25027 24.5161 9C24.5161 12.7497 24.5161 14.6246 23.5612 15.9389C23.2528 16.3634 22.8795 16.7367 22.455 17.0451C21.1407 18 19.2658 18 15.5161 18H9.51611C5.76638 18 3.89152 18 2.57719 17.0451C2.15271 16.7367 1.77943 16.3634 1.47103 15.9389C0.516113 14.6246 0.516113 12.7497 0.516113 9ZM9.51611 2H15.5161C17.4355 2 18.7144 2.00275 19.6834 2.10773C20.615 2.20866 21.0201 2.38448 21.2795 2.57295C21.5342 2.75799 21.7581 2.98196 21.9432 3.23664C22.1316 3.49605 22.3075 3.90113 22.4084 4.83269C22.5134 5.80167 22.5161 7.08058 22.5161 9C22.5161 10.9194 22.5134 12.1983 22.4084 13.1673C22.3075 14.0989 22.1316 14.504 21.9432 14.7634C21.7581 15.018 21.5342 15.242 21.2795 15.4271C21.0201 15.6155 20.615 15.7913 19.6834 15.8923C18.7144 15.9973 17.4355 16 15.5161 16H9.51611C7.5967 16 6.31779 15.9973 5.3488 15.8923C4.41724 15.7913 4.01216 15.6155 3.75276 15.4271C3.49807 15.242 3.2741 15.018 3.08906 14.7634C2.90059 14.504 2.72477 14.0989 2.62384 13.1673C2.51886 12.1983 2.51611 10.9194 2.51611 9C2.51611 7.08058 2.51886 5.80167 2.62384 4.83269C2.72477 3.90113 2.90059 3.49605 3.08906 3.23664C3.2741 2.98196 3.49807 2.75799 3.75276 2.57295C4.01216 2.38448 4.41724 2.20866 5.3488 2.10773C6.31779 2.00275 7.5967 2 9.51611 2Z" fill="#0F0F0F"/>
</svg>
